{"glyphs":{"0":{"ha":767,"x_min":0,"x_max":0,"o":"m 351 797 b 574 464 500 797 574 631 b 351 132 574 297 500 132 b 129 464 201 132 129 297 b 351 797 129 631 201 797 z m 351 -3 b 707 464 588 -3 707 231 b 351 932 707 697 588 932 b -4 464 114 932 -4 697 b 351 -3 -4 231 114 -3 z "},"1":{"ha":374,"x_min":0,"x_max":0,"o":"m 301 0 l 301 976 l 189 976 l -74 607 l 32 531 l 163 708 l 163 0 z "},"2":{"ha":738,"x_min":0,"x_max":0,"o":"m 144 651 b 343 838 161 760 224 838 b 454 497 569 838 607 607 l 456 497 l -1 108 l -1 0 l 681 0 l 681 135 l 235 135 b 549 390 375 251 411 276 b 343 978 811 574 711 978 b 4 663 140 978 29 836 z "},"3":{"ha":721,"x_min":0,"x_max":0,"o":"m 213 422 l 358 422 b 535 283 485 422 529 340 b 315 118 542 203 469 118 b 117 265 193 118 129 188 l -14 242 b 315 -12 8 108 107 -12 b 667 269 549 -12 665 129 b 542 496 668 365 629 444 b 631 699 613 543 631 622 b 307 974 629 888 464 974 b 14 754 178 974 49 901 l 140 724 b 307 840 158 799 233 840 b 492 699 399 840 492 796 b 358 554 492 635 456 554 l 213 554 z "},"4":{"ha":735,"x_min":0,"x_max":0,"o":"m -18 318 l -18 219 l 467 219 l 467 0 l 606 0 l 606 219 l 685 219 l 685 356 l 606 356 l 606 972 l 497 972 z m 165 353 l 469 729 l 469 353 z "},"5":{"ha":742,"x_min":0,"x_max":0,"o":"m -1 221 b 331 0 56 76 168 0 b 686 339 567 0 688 169 b 482 640 685 465 617 585 b 153 646 375 683 260 681 l 153 840 l 631 840 l 631 976 l 11 976 l 11 514 l 90 478 b 432 510 206 546 317 557 b 544 339 506 478 544 407 b 331 142 546 239 475 142 b 128 274 235 142 167 194 z "},"6":{"ha":753,"x_min":0,"x_max":0,"o":"m 344 528 b 558 333 489 528 558 431 b 344 142 558 236 489 142 b 131 333 201 142 131 236 b 344 528 131 431 201 528 z m 50 528 b -10 333 13 471 -10 401 b 344 0 -10 167 110 0 b 699 333 581 0 699 167 b 538 621 699 446 644 560 b 301 638 469 658 374 663 l 539 972 l 367 972 z "},"7":{"ha":704,"x_min":0,"x_max":0,"o":"m -10 972 l -10 835 l 490 835 l 35 0 l 196 0 l 675 876 l 675 972 z "},"8":{"ha":740,"x_min":0,"x_max":0,"o":"m 342 121 b 131 281 201 121 131 206 b 342 436 131 357 201 436 b 554 281 485 436 554 357 b 342 121 554 206 485 121 z m 342 857 b 514 711 424 857 514 804 b 342 565 514 643 458 565 b 171 710 226 565 171 643 b 342 857 171 803 260 857 z m 653 707 b 342 981 653 844 549 981 b 32 708 193 981 33 893 b 160 508 32 651 54 551 b -8 282 50 461 -8 368 b 342 -10 -8 128 110 -10 b 694 282 576 -10 694 136 b 531 508 694 369 643 465 b 653 707 610 544 653 636 z "},"9":{"ha":761,"x_min":0,"x_max":0,"o":"m 354 449 b 139 644 210 449 139 547 b 354 839 139 743 210 839 b 569 644 499 839 569 743 b 354 449 569 547 499 449 z m 653 449 b 713 644 690 507 713 576 b 354 982 713 814 592 982 b -3 644 117 982 -3 814 b 161 354 -3 532 51 417 b 399 339 228 317 325 313 l 160 0 l 333 0 z "}," ":{"ha":489,"x_min":0,"x_max":0,"o":""},"!":{"ha":285,"x_min":0,"x_max":0,"o":"m 44 972 l 44 214 l 190 214 l 190 972 z m 114 160 b 31 72 68 160 31 125 b 114 -8 31 31 68 -8 b 203 72 167 -8 203 31 b 114 160 203 125 167 160 z "},"\"":{"ha":400,"x_min":0,"x_max":0,"o":"m 3 969 l 3 625 l 138 625 l 138 969 z m 197 969 l 197 625 l 332 625 l 332 969 z "},"$":{"ha":764,"x_min":0,"x_max":0,"o":"m 285 978 b 63 854 196 964 115 922 b 285 428 -74 668 61 406 l 285 135 b 144 267 222 151 158 208 l 143 268 l 3 267 l 3 257 b 285 1 19 110 154 24 l 285 -83 l 424 -83 l 424 1 b 711 292 572 29 711 96 b 424 553 711 471 574 547 l 424 836 b 549 725 481 828 535 785 l 686 739 b 424 978 668 886 547 957 l 424 1053 l 285 1053 z m 424 413 b 424 135 635 426 606 129 z m 172 774 b 285 838 197 807 240 826 l 285 569 b 171 774 174 568 114 683 z "},"&":{"ha":833,"x_min":0,"x_max":0,"o":"m 658 778 b 369 981 600 932 490 981 b 51 701 211 981 51 885 b 156 500 51 629 75 547 b 8 306 60 461 18 375 b 364 -8 -7 146 111 -12 b 692 264 574 -4 692 107 l 692 426 l 789 426 l 789 565 l 338 565 b 190 703 226 565 190 633 b 369 842 192 793 279 842 b 532 739 433 842 496 819 z m 336 426 l 553 426 l 553 269 b 363 128 553 185 481 128 b 147 292 210 128 142 214 b 336 426 154 358 206 431 z "},",":{"ha":297,"x_min":0,"x_max":0,"o":"m 133 -110 l 257 146 l 94 146 l -7 -110 z "},".":{"ha":217,"x_min":0,"x_max":0,"o":"m 79 167 b -4 81 33 167 -4 132 b 79 -4 -4 39 33 -4 b 167 81 131 -4 167 39 b 79 167 167 132 131 167 z "},":":{"ha":207,"x_min":0,"x_max":0,"o":"m 74 156 b -4 75 31 156 -4 124 b 74 -4 -4 36 31 -4 b 156 75 122 -4 156 36 b 74 156 156 124 122 156 z m 74 535 b -4 454 31 535 -4 503 b 74 375 -4 414 31 375 b 156 454 122 375 156 414 b 74 535 156 503 122 535 z "},";":{"ha":194,"x_min":0,"x_max":0,"o":"m 72 535 b -6 454 29 535 -6 503 b 72 375 -6 414 29 375 b 154 454 121 375 154 414 b 72 535 154 503 121 535 z m -78 -136 l 24 119 l 186 119 l 63 -136 z "},"?":{"ha":708,"x_min":0,"x_max":0,"o":"m 369 315 b 456 397 369 354 411 374 b 651 660 543 444 647 494 b 299 979 654 825 524 979 b -28 751 140 979 32 879 l 86 686 b 299 835 131 778 203 835 b 503 663 432 835 506 750 b 396 524 500 579 447 551 l 397 524 b 229 317 310 479 229 442 l 229 203 l 371 203 z m 299 161 b 211 69 250 161 211 124 b 299 -19 211 26 250 -19 b 390 69 353 -19 390 26 b 299 161 390 124 353 161 z "},"A":{"ha":817,"x_min":0,"x_max":0,"o":"m 383 761 l 503 418 l 261 418 z m 674 0 l 824 0 l 433 985 l 331 985 l -60 0 l 92 0 b 208 286 122 81 171 197 l 557 286 z "},"C":{"ha":986,"x_min":0,"x_max":0,"o":"m 4 483 b 143 138 4 349 60 226 b 479 -7 228 49 347 -7 b 939 364 706 -7 883 143 l 801 364 b 479 132 751 217 626 132 b 240 236 386 132 301 172 b 140 483 179 300 140 386 b 240 733 140 583 179 669 b 479 838 301 797 386 838 b 793 618 622 838 742 764 l 932 618 b 479 976 876 838 701 976 b 143 832 347 976 228 919 b 4 483 60 743 4 621 z "},"D":{"ha":904,"x_min":0,"x_max":0,"o":"m 164 140 l 164 831 l 372 831 b 711 485 597 831 711 657 b 372 140 711 313 597 140 z m 24 971 l 24 0 l 372 0 b 850 485 690 0 850 242 b 372 971 850 728 690 971 z "},"E":{"ha":650,"x_min":0,"x_max":0,"o":"m 158 415 l 599 415 l 599 557 l 158 557 l 158 831 l 608 831 l 608 971 l 17 971 l 17 0 l 610 0 l 610 140 l 158 140 z "},"F":{"ha":624,"x_min":0,"x_max":0,"o":"m 157 415 l 546 415 l 546 557 l 157 557 l 157 831 l 596 831 l 596 971 l 17 971 l 17 0 l 157 0 z "},"G":{"ha":1007,"x_min":0,"x_max":0,"o":"m 944 624 b 482 978 893 882 668 978 b 4 485 214 978 4 772 b 482 -7 4 199 210 -7 b 925 299 658 -7 858 113 l 925 297 b 951 465 938 329 944 383 l 428 465 l 428 325 l 788 325 b 482 128 729 183 601 128 b 144 485 292 128 144 279 b 482 838 144 689 292 838 b 794 624 606 838 756 781 z "},"H":{"ha":782,"x_min":0,"x_max":0,"o":"m 161 971 l 21 971 l 21 0 l 161 0 l 161 422 l 572 422 l 572 0 l 714 0 l 714 971 l 572 971 l 572 561 l 161 561 z "},"I":{"ha":540,"x_min":0,"x_max":0,"o":"m 493 971 l -8 971 l -8 832 l 172 832 l 172 140 l -8 140 l -8 0 l 493 0 l 493 140 l 313 140 l 313 832 l 493 832 z "},"J":{"ha":561,"x_min":0,"x_max":0,"o":"m 503 971 l 100 971 l 100 832 l 363 832 l 363 421 b -33 140 363 228 188 140 l -33 0 b 503 421 265 0 503 132 z "},"K":{"ha":729,"x_min":0,"x_max":0,"o":"m 24 971 l 24 0 l 163 0 l 163 971 z m 189 450 l 560 0 l 743 0 l 333 489 l 704 971 l 528 971 l 189 521 z "},"L":{"ha":653,"x_min":0,"x_max":0,"o":"m 158 971 l 18 971 l 18 0 l 615 0 l 615 140 l 158 140 z "},"M":{"ha":982,"x_min":0,"x_max":0,"o":"m 167 685 l 421 307 l 500 307 l 754 685 l 754 0 l 893 0 l 893 972 l 782 972 l 461 500 l 140 972 l 26 972 l 26 0 l 167 0 z "},"N":{"ha":817,"x_min":0,"x_max":0,"o":"m 163 0 l 163 679 l 632 0 l 743 0 l 743 972 l 604 972 l 604 288 l 131 972 l 22 974 l 22 0 z "},"O":{"ha":1053,"x_min":0,"x_max":0,"o":"m 846 486 b 743 235 846 386 806 299 b 492 129 678 169 588 129 b 243 235 396 129 307 169 b 139 486 179 299 139 388 b 243 738 139 585 179 674 b 492 843 307 803 396 843 b 743 738 588 843 678 803 b 846 486 806 674 846 586 z m -3 486 b 142 135 -3 349 54 225 b 492 -12 231 43 356 -12 b 843 135 629 -12 753 43 b 988 486 931 225 988 349 b 843 838 988 624 931 747 b 492 985 753 928 629 985 b 142 838 356 985 231 928 b -3 486 54 747 -3 624 z "},"Q":{"ha":1064,"x_min":0,"x_max":0,"o":"m 856 486 b 789 269 856 408 832 328 l 624 419 l 429 419 l 699 179 b 251 233 550 90 372 113 b 147 486 189 297 147 388 b 251 738 147 585 189 674 b 501 843 317 803 406 843 b 751 738 599 843 688 803 b 856 486 814 674 856 585 z m 1053 31 l 892 182 b 997 486 957 267 997 371 b 853 838 997 624 940 747 b 501 985 763 928 639 985 b 151 838 365 985 240 928 b 7 486 64 747 7 624 b 151 135 7 349 67 228 b 808 82 304 -35 592 -61 l 900 0 l 1053 0 z "},"R":{"ha":732,"x_min":0,"x_max":0,"o":"m 214 426 l 568 0 l 750 0 l 443 365 b 694 663 610 394 694 525 b 378 972 694 817 589 972 l 24 972 l 24 0 l 163 0 l 163 831 l 378 831 b 554 663 496 831 554 746 b 378 493 554 578 496 493 l 214 493 z "},"S":{"ha":769,"x_min":0,"x_max":0,"o":"m 692 726 b 361 982 667 904 511 982 b 67 853 249 982 132 938 b 14 668 25 799 8 733 l 14 669 b 358 418 29 467 207 433 b 572 322 456 408 556 396 b 576 289 575 310 576 299 b 358 131 576 189 463 131 b 149 268 268 131 158 178 l 149 263 l 147 283 l 6 281 l 7 254 b 357 -8 25 81 207 -8 b 718 288 532 -8 718 100 b 711 351 718 307 715 331 b 375 558 674 507 508 542 b 154 681 271 568 161 581 b 178 771 151 714 158 746 b 354 844 217 821 289 843 b 553 721 439 846 533 808 z "},"T":{"ha":742,"x_min":0,"x_max":0,"o":"m 407 -4 l 407 831 l 700 831 l 700 972 l -28 972 l -28 831 l 267 831 l 267 -4 z "},"U":{"ha":818,"x_min":0,"x_max":0,"o":"m 385 -10 b 743 290 551 -10 743 93 l 743 971 l 601 971 l 601 292 b 385 131 601 185 486 131 b 167 290 282 131 167 183 l 167 971 l 25 971 l 25 292 b 385 -10 25 93 214 -10 z "},"V":{"ha":836,"x_min":0,"x_max":0,"o":"m 385 244 l 96 971 l -57 971 l 333 -3 l 436 -3 l 826 971 l 676 971 z "},"W":{"ha":1182,"x_min":0,"x_max":0,"o":"m 719 -8 l 824 -8 l 1147 971 l 1000 971 b 767 271 928 750 843 503 l 608 724 l 496 724 l 336 269 l 104 971 l -42 971 l 282 -8 l 386 -8 b 551 463 436 139 496 304 z "},"X":{"ha":835,"x_min":0,"x_max":0,"o":"m -58 971 b 293 483 31 847 189 626 l -58 0 l 114 0 l 378 364 l 643 0 l 814 0 b 463 483 721 129 567 340 l 814 971 l 643 971 l 378 607 l 114 971 z "},"Y":{"ha":788,"x_min":0,"x_max":0,"o":"m -69 971 l 290 396 l 290 0 l 432 0 l 432 396 l 793 971 l 626 971 l 361 544 l 96 971 z "},"¡":{"ha":281,"x_min":0,"x_max":0,"o":"m 43 -8 l 43 750 l 189 750 l 189 -8 z m 119 804 b 203 892 165 804 203 839 b 119 972 203 933 165 972 b 31 892 67 972 31 933 b 119 804 31 839 67 804 z "},"⁄":{"ha":453,"x_min":0,"x_max":0,"o":""},"'":{"ha":196,"x_min":0,"x_max":0,"o":"m 7 974 l 7 629 l 140 629 l 140 974 z "},"·":{"ha":229,"x_min":0,"x_max":0,"o":"m 101 519 b 24 439 58 519 24 488 b 101 360 24 399 58 360 b 183 439 150 360 183 399 b 101 519 183 488 150 519 z "},"…":{"ha":651,"x_min":0,"x_max":0,"o":"m 97 157 b 19 76 54 157 19 125 b 97 -3 19 38 54 -3 b 179 76 146 -3 179 38 b 97 157 179 125 146 157 z m 308 157 b 229 76 264 157 229 125 b 308 -3 229 38 264 -3 b 389 76 357 -3 389 38 b 308 157 389 125 357 157 z m 524 157 b 444 76 479 157 444 125 b 524 -3 444 38 479 -3 b 604 76 572 -3 604 38 b 524 157 604 125 572 157 z "},"¿":{"ha":714,"x_min":0,"x_max":0,"o":"m 285 760 l 426 760 l 426 646 b 258 439 426 521 346 483 l 260 439 b 153 300 208 411 156 383 b 357 128 150 213 224 128 b 569 276 453 128 525 185 l 683 211 b 357 -17 624 83 515 -17 b 4 303 132 -17 1 138 b 200 565 8 468 113 518 b 286 647 244 589 286 608 z m 357 801 b 444 893 406 801 444 839 b 357 982 444 936 406 982 b 265 893 303 982 265 936 b 357 801 265 839 303 801 z "},"`":{"ha":342,"x_min":0,"x_max":0,"o":"m 281 847 l 181 996 l -8 996 l 149 847 z "},"´":{"ha":342,"x_min":0,"x_max":0,"o":"m 154 847 l 311 996 l 122 996 l 22 847 z "},"ˆ":{"ha":433,"x_min":0,"x_max":0,"o":"m 144 878 l 204 932 l 271 878 l 421 878 l 268 1017 l 149 1017 l -8 878 z "},"˜":{"ha":483,"x_min":0,"x_max":0,"o":"m 122 849 b 311 844 161 951 243 819 b 394 960 347 858 372 901 l 304 1000 b 132 999 281 893 215 1008 b 39 883 92 992 67 951 z "},"¨":{"ha":549,"x_min":0,"x_max":0,"o":"m 125 1024 b 47 942 82 1024 47 990 b 125 864 47 903 82 864 b 207 942 174 864 207 903 b 125 1024 207 990 174 1024 z m 385 1024 b 306 942 340 1024 306 990 b 385 864 306 903 340 864 b 465 942 428 864 465 903 b 385 1024 465 990 433 1024 z "},"˚":{"ha":388,"x_min":0,"x_max":0,"o":"m 61 968 b 176 851 61 906 113 851 b 294 968 242 851 294 903 b 176 1086 294 1032 240 1086 b 61 968 113 1086 61 1032 z m 222 968 b 176 925 222 946 204 925 b 133 968 154 925 133 946 b 176 1014 133 992 154 1014 b 222 968 204 1014 222 992 z "},"−":{"ha":686,"x_min":0,"x_max":0,"o":""}," ":{"ha":278,"x_min":0,"x_max":0,"o":""},"Ω":{"ha":978,"x_min":0,"x_max":0,"o":""},"π":{"ha":893,"x_min":0,"x_max":0,"o":""},"€":{"ha":1025,"x_min":0,"x_max":0,"o":"m -17 496 l 35 496 l 35 483 l 35 461 l -17 461 l -17 360 l 50 360 b 174 138 72 274 117 197 b 510 -7 258 49 378 -7 b 969 364 736 -7 914 143 l 832 364 b 510 132 782 217 657 132 b 271 236 417 132 332 172 b 193 360 238 271 210 313 l 426 360 l 426 461 l 171 461 l 171 483 l 171 496 l 426 496 l 426 592 l 186 592 b 271 733 203 646 233 693 b 510 838 332 797 417 838 b 824 618 653 838 772 764 l 963 618 b 510 976 907 838 732 976 b 174 832 378 976 258 919 b 46 592 113 767 67 685 l -17 592 z "},"ℓ":{"ha":679,"x_min":0,"x_max":0,"o":""},"Ω":{"ha":978,"x_min":0,"x_max":0,"o":""},"∂":{"ha":792,"x_min":0,"x_max":0,"o":""},"∆":{"ha":835,"x_min":0,"x_max":0,"o":""},"∏":{"ha":988,"x_min":0,"x_max":0,"o":""},"∑":{"ha":867,"x_min":0,"x_max":0,"o":""},"∕":{"ha":453,"x_min":0,"x_max":0,"o":""},"∙":{"ha":229,"x_min":0,"x_max":0,"o":""},"√":{"ha":701,"x_min":0,"x_max":0,"o":""},"∞":{"ha":1075,"x_min":0,"x_max":0,"o":""},"∫":{"ha":675,"x_min":0,"x_max":0,"o":""},"≈":{"ha":686,"x_min":0,"x_max":0,"o":""},"≠":{"ha":686,"x_min":0,"x_max":0,"o":""},"≤":{"ha":686,"x_min":0,"x_max":0,"o":""},"≥":{"ha":686,"x_min":0,"x_max":0,"o":""},"◊":{"ha":768,"x_min":0,"x_max":0,"o":"m 672 463 l 401 926 l 299 926 l 28 461 l 164 231 l 299 0 l 401 0 z m 349 179 l 183 461 b 296 654 225 531 257 586 l 350 746 l 394 671 b 515 463 435 601 476 532 z m 299 96 l 400 94 l 367 151 l 349 179 z m 533 492 l 515 463 l 533 433 z "},"ﬁ":{"ha":1040,"x_min":0,"x_max":0,"o":"m 163 415 l 551 415 l 551 557 l 163 557 l 163 831 l 601 831 l 601 971 l 22 971 l 22 0 l 163 0 z m 988 971 l 667 971 l 667 132 l 486 132 l 486 0 l 988 0 l 988 132 l 807 132 l 807 832 l 988 832 z "},"ﬂ":{"ha":1304,"x_min":0,"x_max":0,"o":"m 169 415 l 558 415 l 558 557 l 169 557 l 169 831 l 608 831 l 608 971 l 29 971 l 29 0 l 169 0 z m 803 971 l 663 971 l 663 0 l 1260 0 l 1260 140 l 803 140 z "},"":{"ha":649,"x_min":0,"x_max":0,"o":"m 157 246 l 597 246 l 597 383 l 157 383 l 157 831 l 607 831 l 607 971 l 15 971 l 15 0 l 608 0 l 608 140 l 157 140 z "},"":{"ha":649,"x_min":0,"x_max":0,"o":"m 157 246 l 597 246 l 597 383 l 157 383 l 157 831 l 607 831 l 607 971 l 15 971 l 15 0 l 608 0 l 608 140 l 157 140 z m 379 1021 l 536 1169 l 347 1169 l 247 1021 z "},"":{"ha":649,"x_min":0,"x_max":0,"o":"m 157 140 l 608 140 l 608 0 l 15 0 l 15 971 l 607 971 l 607 831 l 157 831 l 157 383 l 597 383 l 597 246 l 157 246 z m 414 1021 l 314 1169 l 125 1169 l 282 1021 z "},"":{"ha":647,"x_min":0,"x_max":0,"o":"m 157 246 l 597 246 l 597 383 l 157 383 l 157 831 l 607 831 l 607 971 l 15 971 l 15 0 l 608 0 l 608 140 l 157 140 z m 256 1021 l 315 1075 l 382 1021 l 532 1021 l 379 1160 l 260 1160 l 103 1021 z "},"":{"ha":649,"x_min":0,"x_max":0,"o":"m 157 140 l 608 140 l 608 0 l 15 0 l 15 971 l 607 971 l 607 831 l 157 831 l 157 383 l 597 383 l 597 246 l 157 246 z m 197 1146 b 121 1079 154 1146 121 1119 b 197 1015 121 1047 154 1015 b 276 1079 244 1015 276 1047 b 197 1146 276 1119 244 1146 z m 450 1146 b 372 1079 406 1146 372 1119 b 450 1015 372 1047 406 1015 b 528 1079 492 1015 528 1047 b 450 1146 528 1119 497 1146 z "},"":{"ha":638,"x_min":0,"x_max":0,"o":"m 157 238 l 546 238 l 546 379 l 157 379 l 157 831 l 596 831 l 596 971 l 17 971 l 17 0 l 157 0 z "},"":{"ha":782,"x_min":0,"x_max":0,"o":"m 161 971 l 21 971 l 21 0 l 161 0 l 161 236 l 572 236 l 572 0 l 714 0 l 714 971 l 572 971 l 572 375 l 161 375 z "},"":{"ha":817,"x_min":0,"x_max":0,"o":"m 611 638 l 126 969 l 31 969 l 31 0 l 172 0 l 172 776 l 611 482 l 611 0 l 750 0 l 750 969 l 611 969 z "},"":{"ha":817,"x_min":0,"x_max":0,"o":"m 611 638 l 126 969 l 31 969 l 31 0 l 172 0 l 172 776 l 611 482 l 611 0 l 750 0 l 750 969 l 611 969 z m 282 990 b 469 976 326 1090 400 954 b 558 1088 507 989 533 1029 l 471 1132 b 299 1139 442 1025 382 1144 b 200 1028 258 1135 231 1094 z "},"":{"ha":813,"x_min":0,"x_max":0,"o":"m 29 49 b 746 47 31 -43 744 -37 l 746 971 l 604 971 l 604 144 b 171 144 606 100 171 99 l 171 971 l 29 971 z "},"":{"ha":813,"x_min":0,"x_max":0,"o":"m 29 49 b 746 47 31 -43 744 -37 l 746 971 l 604 971 l 604 144 b 171 144 606 100 171 99 l 171 971 l 29 971 z m 429 1021 l 586 1169 l 397 1169 l 297 1021 z "},"":{"ha":813,"x_min":0,"x_max":0,"o":"m 29 971 l 171 971 l 171 144 b 604 144 171 99 606 100 l 604 971 l 746 971 l 746 47 b 29 49 744 -37 31 -43 z m 479 1021 l 379 1169 l 190 1169 l 347 1021 z "},"":{"ha":813,"x_min":0,"x_max":0,"o":"m 29 49 b 746 47 31 -43 744 -37 l 746 971 l 604 971 l 604 144 b 171 144 606 100 171 99 l 171 971 l 29 971 z m 328 1021 l 388 1075 l 454 1021 l 604 1021 l 451 1160 l 332 1160 l 175 1021 z "},"":{"ha":813,"x_min":0,"x_max":0,"o":"m 29 971 l 171 971 l 171 144 b 604 144 171 99 606 100 l 604 971 l 746 971 l 746 47 b 29 49 744 -37 31 -43 z m 264 1146 b 188 1079 221 1146 188 1119 b 264 1015 188 1047 221 1015 b 343 1079 311 1015 343 1047 b 264 1146 343 1119 311 1146 z m 517 1146 b 439 1079 472 1146 439 1119 b 517 1015 439 1047 472 1015 b 594 1079 558 1015 594 1047 b 517 1146 594 1119 564 1146 z "},"":{"ha":824,"x_min":0,"x_max":0,"o":"m -37 972 l 313 281 l 178 0 l 333 0 l 804 972 l 646 972 l 392 438 l 124 972 z "},"":{"ha":821,"x_min":0,"x_max":0,"o":"m 135 972 l 403 438 l 657 972 l 815 972 l 344 0 l 189 0 l 324 281 l -26 972 z m 278 1143 b 201 1076 235 1143 201 1117 b 278 1013 201 1044 235 1013 b 357 1076 325 1013 357 1044 b 278 1143 357 1117 325 1143 z m 531 1143 b 453 1076 486 1143 453 1117 b 531 1013 453 1044 486 1013 b 608 1076 572 1013 608 1044 b 531 1143 608 1117 578 1143 z "},"":{"ha":517,"x_min":0,"x_max":0,"o":""},"":{"ha":588,"x_min":0,"x_max":0,"o":""},"P":{"ha":732,"x_min":0,"x_max":0,"o":"m 19 972 l 19 0 l 161 0 l 161 324 l 375 324 b 690 647 585 324 690 485 b 375 972 690 810 585 972 z m 161 463 l 161 831 l 375 831 b 551 646 493 831 551 739 b 375 463 551 554 493 463 z "},"Æ":{"ha":1167,"x_min":0,"x_max":0,"o":"m 654 346 l 1094 346 l 1094 486 l 654 486 l 654 832 l 1104 832 l 1104 972 l 497 972 l -47 0 l 111 0 b 308 346 169 104 246 238 l 514 346 l 514 0 l 1107 0 l 1107 140 l 654 140 z m 386 486 l 528 794 l 514 486 z "},"Ç":{"ha":971,"x_min":0,"x_max":0,"o":"m 4 483 b 143 138 4 349 60 226 b 417 -3 214 63 310 11 l 371 -108 b 363 -169 635 -97 476 -317 l 282 -194 b 544 -289 304 -308 460 -340 b 499 -43 681 -208 642 -51 l 513 -6 b 939 364 722 8 886 154 l 801 364 b 479 132 751 217 626 132 b 240 236 386 132 301 172 b 140 483 179 300 140 386 b 240 733 140 583 179 669 b 479 838 301 797 386 838 b 793 618 622 838 742 764 l 932 618 b 479 976 876 838 701 976 b 143 832 347 976 228 919 b 4 483 60 743 4 621 z "},"Œ":{"ha":1151,"x_min":0,"x_max":0,"o":"m 646 415 l 1085 415 l 1085 557 l 646 557 l 646 836 l 1094 836 l 1094 976 l 569 976 b 493 982 543 981 519 982 b -4 486 213 982 -4 774 b 493 -10 -4 199 213 -10 b 582 -3 522 -10 554 -7 l 1097 -3 l 1097 138 l 646 138 z m 493 853 l 504 853 l 504 122 b 500 122 501 122 501 122 b 493 122 500 122 500 122 b 138 486 292 122 138 283 b 493 853 138 688 292 850 z "},"Ø":{"ha":1056,"x_min":0,"x_max":0,"o":"m 6 486 b 150 135 6 349 63 225 l 150 136 l 182 110 l 76 -60 l 231 -60 l 289 33 b 500 -12 347 7 433 -12 b 851 135 638 -12 763 43 b 996 486 939 225 996 349 b 819 864 996 622 944 756 l 911 1011 l 756 1010 l 710 939 b 500 985 646 971 576 985 b 150 838 364 985 239 928 b 6 486 63 747 6 624 z m 854 486 b 751 235 854 386 814 299 b 500 129 686 169 597 129 b 364 157 454 129 413 133 b 743 747 501 371 611 540 b 854 486 810 681 854 589 z m 500 843 b 633 819 544 843 593 835 l 258 228 b 251 233 258 229 251 232 l 251 235 b 147 486 189 299 147 388 b 251 738 147 585 189 674 b 500 843 315 803 404 843 z "},"a":{"ha":817,"x_min":0,"x_max":0,"o":"m 383 761 l 503 418 l 261 418 z m 674 0 l 824 0 l 433 985 l 331 985 l -60 0 l 92 0 b 208 286 122 81 171 197 l 557 286 z "},"b":{"ha":781,"x_min":0,"x_max":0,"o":"m 161 838 l 426 838 b 424 585 579 838 576 585 l 161 585 z m 22 971 l 22 0 l 461 0 b 743 293 647 0 743 147 b 592 535 743 385 703 488 b 663 811 689 604 701 715 b 426 971 626 901 549 971 z m 161 446 l 461 446 b 603 292 556 446 603 368 b 461 136 603 215 556 136 l 161 136 z "},"c":{"ha":986,"x_min":0,"x_max":0,"o":"m 4 483 b 143 138 4 349 60 226 b 479 -7 228 49 347 -7 b 939 364 706 -7 883 143 l 801 364 b 479 132 751 217 626 132 b 240 236 386 132 301 172 b 140 483 179 300 140 386 b 240 733 140 583 179 669 b 479 838 301 797 386 838 b 793 618 622 838 742 764 l 932 618 b 479 976 876 838 701 976 b 143 832 347 976 228 919 b 4 483 60 743 4 621 z "},"d":{"ha":904,"x_min":0,"x_max":0,"o":"m 164 140 l 164 831 l 372 831 b 711 485 597 831 711 657 b 372 140 711 313 597 140 z m 24 971 l 24 0 l 372 0 b 850 485 690 0 850 242 b 372 971 850 728 690 971 z "},"e":{"ha":650,"x_min":0,"x_max":0,"o":"m 158 415 l 599 415 l 599 557 l 158 557 l 158 831 l 608 831 l 608 971 l 17 971 l 17 0 l 610 0 l 610 140 l 158 140 z "},"f":{"ha":624,"x_min":0,"x_max":0,"o":"m 157 415 l 546 415 l 546 557 l 157 557 l 157 831 l 596 831 l 596 971 l 17 971 l 17 0 l 157 0 z "},"g":{"ha":1007,"x_min":0,"x_max":0,"o":"m 944 624 b 482 978 893 882 668 978 b 4 485 214 978 4 772 b 482 -7 4 199 210 -7 b 925 299 658 -7 858 113 l 925 297 b 951 465 938 329 944 383 l 428 465 l 428 325 l 788 325 b 482 128 729 183 601 128 b 144 485 292 128 144 279 b 482 838 144 689 292 838 b 794 624 606 838 756 781 z "},"h":{"ha":782,"x_min":0,"x_max":0,"o":"m 161 971 l 21 971 l 21 0 l 161 0 l 161 422 l 572 422 l 572 0 l 714 0 l 714 971 l 572 971 l 572 561 l 161 561 z "},"i":{"ha":519,"x_min":0,"x_max":0,"o":"m 479 971 l -22 971 l -22 832 l 158 832 l 158 140 l -22 140 l -22 0 l 479 0 l 479 140 l 299 140 l 299 832 l 479 832 z "},"j":{"ha":572,"x_min":0,"x_max":0,"o":"m 514 971 l 111 971 l 111 832 l 374 832 l 374 421 b -14 132 374 228 207 132 l -14 0 b 514 421 285 0 514 132 z "},"k":{"ha":729,"x_min":0,"x_max":0,"o":"m 24 971 l 24 0 l 163 0 l 163 971 z m 189 450 l 560 0 l 743 0 l 333 489 l 704 971 l 528 971 l 189 521 z "},"l":{"ha":664,"x_min":0,"x_max":0,"o":"m 169 971 l 29 971 l 29 0 l 626 0 l 626 140 l 169 140 z "},"m":{"ha":982,"x_min":0,"x_max":0,"o":"m 167 685 l 421 307 l 500 307 l 754 685 l 754 0 l 893 0 l 893 972 l 782 972 l 461 500 l 140 972 l 26 972 l 26 0 l 167 0 z "},"n":{"ha":817,"x_min":0,"x_max":0,"o":"m 163 0 l 163 679 l 632 0 l 743 0 l 743 972 l 604 972 l 604 288 l 131 972 l 22 974 l 22 0 z "},"o":{"ha":1053,"x_min":0,"x_max":0,"o":"m 846 486 b 743 235 846 386 806 299 b 492 129 678 169 588 129 b 243 235 396 129 307 169 b 139 486 179 299 139 388 b 243 738 139 585 179 674 b 492 843 307 803 396 843 b 743 738 588 843 678 803 b 846 486 806 674 846 586 z m -3 486 b 142 135 -3 349 54 225 b 492 -12 231 43 356 -12 b 843 135 629 -12 753 43 b 988 486 931 225 988 349 b 843 838 988 624 931 747 b 492 985 753 928 629 985 b 142 838 356 985 231 928 b -3 486 54 747 -3 624 z "},"p":{"ha":740,"x_min":0,"x_max":0,"o":"m 19 972 l 19 0 l 161 0 l 161 324 l 375 324 b 690 647 585 324 690 485 b 375 972 690 810 585 972 z m 161 463 l 161 831 l 375 831 b 551 646 493 831 551 739 b 375 463 551 554 493 463 z "},"q":{"ha":1075,"x_min":0,"x_max":0,"o":"m 856 486 b 789 269 856 408 832 328 l 624 419 l 429 419 l 699 179 b 251 233 550 90 372 113 b 147 486 189 297 147 388 b 251 738 147 585 189 674 b 501 843 317 803 406 843 b 751 738 599 843 688 803 b 856 486 814 674 856 585 z m 1053 31 l 892 182 b 997 486 957 267 997 371 b 853 838 997 624 940 747 b 501 985 763 928 639 985 b 151 838 365 985 240 928 b 7 486 64 747 7 624 b 151 135 7 349 67 228 b 808 82 304 -35 592 -61 l 900 0 l 1053 0 z "},"r":{"ha":738,"x_min":0,"x_max":0,"o":"m 214 426 l 568 0 l 750 0 l 443 365 b 694 663 610 394 694 525 b 378 972 694 817 589 972 l 24 972 l 24 0 l 163 0 l 163 831 l 378 831 b 554 663 496 831 554 746 b 378 493 554 578 496 493 l 214 493 z "},"s":{"ha":769,"x_min":0,"x_max":0,"o":"m 692 726 b 361 982 667 904 511 982 b 67 853 249 982 132 938 b 14 668 25 799 8 733 l 14 669 b 358 418 29 467 207 433 b 572 322 456 408 556 396 b 576 289 575 310 576 299 b 358 131 576 189 463 131 b 149 268 268 131 158 178 l 149 263 l 147 283 l 6 281 l 7 254 b 357 -8 25 81 207 -8 b 718 288 532 -8 718 100 b 711 351 718 307 715 331 b 375 558 674 507 508 542 b 154 681 271 568 161 581 b 178 771 151 714 158 746 b 354 844 217 821 289 843 b 553 721 439 846 533 808 z "},"t":{"ha":742,"x_min":0,"x_max":0,"o":"m 407 -4 l 407 842 l 700 842 l 700 972 l -28 972 l -28 842 l 267 842 l 267 -4 z "},"u":{"ha":818,"x_min":0,"x_max":0,"o":"m 385 -10 b 743 290 551 -10 743 93 l 743 971 l 601 971 l 601 292 b 385 131 601 185 486 131 b 167 290 282 131 167 183 l 167 971 l 25 971 l 25 292 b 385 -10 25 93 214 -10 z "},"v":{"ha":836,"x_min":0,"x_max":0,"o":"m 385 244 l 96 971 l -57 971 l 333 -3 l 436 -3 l 826 971 l 676 971 z "},"w":{"ha":1182,"x_min":0,"x_max":0,"o":"m 722 -6 l 821 -6 l 1147 971 l 1000 971 b 767 271 928 750 843 503 l 608 724 l 496 724 l 336 269 l 104 971 l -42 971 l 285 -6 l 383 -6 b 551 463 433 142 496 304 z "},"x":{"ha":835,"x_min":0,"x_max":0,"o":"m -58 971 b 293 483 31 847 189 626 l -58 0 l 114 0 l 378 364 l 643 0 l 814 0 b 463 483 721 129 567 340 l 814 971 l 643 971 l 378 607 l 114 971 z "},"y":{"ha":788,"x_min":0,"x_max":0,"o":"m -69 971 l 290 396 l 290 0 l 432 0 l 432 396 l 793 971 l 626 971 l 361 544 l 96 971 z "},"Š":{"ha":769,"x_min":0,"x_max":0,"o":"m 692 726 b 361 982 667 904 511 982 b 67 853 249 982 132 938 b 14 668 25 799 8 733 l 14 669 b 358 418 29 467 207 433 b 572 322 456 408 556 396 b 576 289 575 310 576 299 b 358 131 576 189 463 131 b 149 268 268 131 158 178 l 149 263 l 147 283 l 6 281 l 7 254 b 357 -8 25 81 207 -8 b 718 288 532 -8 718 100 b 711 351 718 307 715 331 b 375 558 674 507 508 542 b 154 681 271 568 161 581 b 178 771 151 714 158 746 b 354 844 217 821 289 843 b 553 721 439 846 533 808 z m 424 1160 l 361 1106 l 293 1160 l 143 1160 l 296 1022 l 419 1021 l 576 1160 z "},"Ž":{"ha":779,"x_min":0,"x_max":0,"o":"m 1 831 l 532 831 l -40 78 l 17 0 l 739 0 l 739 140 l 183 140 l 747 882 l 700 971 l 1 971 z m 439 1160 l 376 1106 l 308 1160 l 158 1160 l 311 1022 l 435 1021 l 592 1160 z "},"ž":{"ha":779,"x_min":0,"x_max":0,"o":"m 1 831 l 532 831 l -40 78 l 17 0 l 739 0 l 739 140 l 183 140 l 747 882 l 700 971 l 1 971 z m 439 1160 l 376 1106 l 308 1160 l 158 1160 l 311 1022 l 435 1021 l 592 1160 z "},"š":{"ha":769,"x_min":0,"x_max":0,"o":"m 692 726 b 361 982 667 904 511 982 b 67 853 249 982 132 938 b 14 668 25 799 8 733 l 14 669 b 358 418 29 467 207 433 b 572 322 456 408 556 396 b 576 289 575 310 576 299 b 358 131 576 189 463 131 b 149 268 268 131 158 178 l 149 263 l 147 283 l 6 281 l 7 254 b 357 -8 25 81 207 -8 b 718 288 532 -8 718 100 b 711 351 718 307 715 331 b 375 558 674 507 508 542 b 154 681 271 568 161 581 b 178 771 151 714 158 746 b 354 844 217 821 289 843 b 553 721 439 846 533 808 z m 424 1160 l 361 1106 l 293 1160 l 143 1160 l 296 1022 l 419 1021 l 576 1160 z "},"Ÿ":{"ha":788,"x_min":0,"x_max":0,"o":"m 96 971 l 361 544 l 626 971 l 793 971 l 432 396 l 432 0 l 290 0 l 290 396 l -69 971 z m 221 1163 b 143 1081 178 1163 143 1129 b 221 1003 143 1042 178 1003 b 303 1081 269 1003 303 1042 b 221 1163 303 1129 269 1163 z m 481 1163 b 401 1081 436 1163 401 1129 b 481 1003 401 1042 436 1003 b 561 1081 524 1003 561 1042 b 481 1163 561 1129 529 1163 z "},"œ":{"ha":1151,"x_min":0,"x_max":0,"o":"m 646 415 l 1085 415 l 1085 557 l 646 557 l 646 836 l 1094 836 l 1094 976 l 569 976 b 493 982 543 981 519 982 b -4 486 213 982 -4 774 b 493 -10 -4 199 213 -10 b 582 -3 522 -10 554 -7 l 1097 -3 l 1097 138 l 646 138 z m 493 853 l 504 853 l 504 122 b 500 122 501 122 501 122 b 493 122 500 122 500 122 b 138 486 292 122 138 283 b 493 853 138 688 292 850 z "},"¥":{"ha":788,"x_min":0,"x_max":0,"o":"m 136 282 l 290 282 l 290 0 l 432 0 l 432 282 l 579 282 l 579 383 l 426 383 l 446 418 l 579 418 l 579 514 l 506 514 l 793 971 l 626 971 l 361 544 l 96 971 l -69 971 l 217 514 l 136 514 l 136 418 l 276 418 l 294 383 l 136 383 z "},"À":{"ha":817,"x_min":0,"x_max":0,"o":"m 383 761 l 503 418 l 261 418 z m 674 0 l 824 0 l 433 985 l 331 985 l -60 0 l 92 0 b 208 286 122 81 171 197 l 557 286 z m 446 1022 l 346 1171 l 157 1171 l 314 1022 z "},"Á":{"ha":817,"x_min":0,"x_max":0,"o":"m 383 761 l 503 418 l 261 418 z m 674 0 l 824 0 l 433 985 l 331 985 l -60 0 l 92 0 b 208 286 122 81 171 197 l 557 286 z m 444 1021 l 601 1169 l 413 1169 l 313 1021 z "},"Â":{"ha":817,"x_min":0,"x_max":0,"o":"m 383 761 l 503 418 l 261 418 z m 674 0 l 824 0 l 433 985 l 331 985 l -60 0 l 92 0 b 208 286 122 81 171 197 l 557 286 z m 314 1013 l 374 1067 l 440 1013 l 590 1013 l 438 1151 l 318 1151 l 161 1013 z "},"Ã":{"ha":817,"x_min":0,"x_max":0,"o":"m 281 1015 b 468 1013 325 1114 400 989 b 558 1113 507 1024 535 1056 l 469 1157 b 301 1157 440 1051 385 1163 b 200 1053 261 1151 229 1119 z m 383 761 l 503 418 l 261 418 z m 674 0 l 824 0 l 433 985 l 331 985 l -60 0 l 92 0 b 208 286 122 81 171 197 l 557 286 z "},"Ä":{"ha":817,"x_min":0,"x_max":0,"o":"m 383 761 l 503 418 l 261 418 z m 674 0 l 824 0 l 433 985 l 331 985 l -60 0 l 92 0 b 208 286 122 81 171 197 l 557 286 z m 258 1140 b 182 1074 215 1140 182 1114 b 258 1010 182 1042 215 1010 b 338 1074 306 1010 338 1042 b 258 1140 338 1114 306 1140 z m 511 1140 b 433 1074 467 1140 433 1114 b 511 1010 433 1042 467 1010 b 589 1074 553 1010 589 1042 b 511 1140 589 1114 558 1140 z "},"Å":{"ha":825,"x_min":0,"x_max":0,"o":"m 269 1061 b 328 958 269 1018 293 979 l -51 0 l 100 0 b 217 286 131 81 179 197 l 565 286 l 682 0 l 832 0 l 450 963 b 503 1061 482 983 503 1019 b 385 1179 503 1125 449 1179 b 269 1061 321 1179 269 1125 z m 392 761 l 511 418 l 269 418 z m 431 1061 b 385 1018 431 1039 413 1018 b 342 1061 363 1018 342 1039 b 385 1107 342 1085 363 1107 b 431 1061 413 1107 431 1085 z "},"à":{"ha":817,"x_min":0,"x_max":0,"o":"m 383 761 l 503 418 l 261 418 z m 674 0 l 824 0 l 433 985 l 331 985 l -60 0 l 92 0 b 208 286 122 81 171 197 l 557 286 z m 446 1022 l 346 1171 l 157 1171 l 314 1022 z "},"á":{"ha":817,"x_min":0,"x_max":0,"o":"m 383 761 l 503 418 l 261 418 z m 674 0 l 824 0 l 433 985 l 331 985 l -60 0 l 92 0 b 208 286 122 81 171 197 l 557 286 z m 444 1021 l 601 1169 l 413 1169 l 313 1021 z "},"â":{"ha":817,"x_min":0,"x_max":0,"o":"m 383 761 l 503 418 l 261 418 z m 674 0 l 824 0 l 433 985 l 331 985 l -60 0 l 92 0 b 208 286 122 81 171 197 l 557 286 z m 314 1013 l 374 1067 l 440 1013 l 590 1013 l 438 1151 l 318 1151 l 161 1013 z "},"ã":{"ha":817,"x_min":0,"x_max":0,"o":"m 281 1015 b 468 1013 325 1114 400 989 b 558 1113 507 1024 535 1056 l 469 1157 b 301 1157 440 1051 385 1163 b 200 1053 261 1151 229 1119 z m 383 761 l 503 418 l 261 418 z m 674 0 l 824 0 l 433 985 l 331 985 l -60 0 l 92 0 b 208 286 122 81 171 197 l 557 286 z "},"ä":{"ha":817,"x_min":0,"x_max":0,"o":"m 383 761 l 503 418 l 261 418 z m 674 0 l 824 0 l 433 985 l 331 985 l -60 0 l 92 0 b 208 286 122 81 171 197 l 557 286 z m 258 1140 b 182 1074 215 1140 182 1114 b 258 1010 182 1042 215 1010 b 338 1074 306 1010 338 1042 b 258 1140 338 1114 306 1140 z m 511 1140 b 433 1074 467 1140 433 1114 b 511 1010 433 1042 467 1010 b 589 1074 553 1010 589 1042 b 511 1140 589 1114 558 1140 z "},"å":{"ha":825,"x_min":0,"x_max":0,"o":"m 269 1061 b 328 958 269 1018 293 979 l -51 0 l 100 0 b 217 286 131 81 179 197 l 565 286 l 682 0 l 832 0 l 450 963 b 503 1061 482 983 503 1019 b 385 1179 503 1125 449 1179 b 269 1061 321 1179 269 1125 z m 392 761 l 511 418 l 269 418 z m 431 1061 b 385 1018 431 1039 413 1018 b 342 1061 363 1018 342 1039 b 385 1107 342 1085 363 1107 b 431 1061 413 1107 431 1085 z "},"æ":{"ha":1167,"x_min":0,"x_max":0,"o":"m 654 346 l 1094 346 l 1094 486 l 654 486 l 654 832 l 1104 832 l 1104 972 l 497 972 l -47 0 l 111 0 b 308 346 169 104 246 238 l 514 346 l 514 0 l 1107 0 l 1107 140 l 654 140 z m 386 486 l 528 794 l 514 486 z "},"È":{"ha":650,"x_min":0,"x_max":0,"o":"m 158 140 l 610 140 l 610 0 l 17 0 l 17 971 l 608 971 l 608 831 l 158 831 l 158 557 l 599 557 l 599 415 l 158 415 z m 422 1017 l 322 1165 l 133 1165 l 290 1017 z "},"É":{"ha":650,"x_min":0,"x_max":0,"o":"m 158 415 l 599 415 l 599 557 l 158 557 l 158 831 l 608 831 l 608 971 l 17 971 l 17 0 l 610 0 l 610 140 l 158 140 z m 369 1014 l 526 1163 l 338 1163 l 238 1014 z "},"Ê":{"ha":650,"x_min":0,"x_max":0,"o":"m 158 415 l 599 415 l 599 557 l 158 557 l 158 831 l 608 831 l 608 971 l 17 971 l 17 0 l 610 0 l 610 140 l 158 140 z m 264 1018 l 324 1072 l 390 1018 l 540 1018 l 388 1157 l 268 1157 l 111 1018 z "},"Ë":{"ha":650,"x_min":0,"x_max":0,"o":"m 158 140 l 610 140 l 610 0 l 17 0 l 17 971 l 608 971 l 608 831 l 158 831 l 158 557 l 599 557 l 599 415 l 158 415 z m 204 1153 b 128 1079 163 1153 128 1122 b 204 1011 128 1046 163 1011 b 285 1079 253 1011 285 1046 b 204 1153 285 1122 253 1153 z m 458 1153 b 382 1079 415 1153 382 1122 b 458 1011 382 1046 415 1011 b 538 1079 501 1011 538 1046 b 458 1153 538 1122 507 1153 z "},"Ì":{"ha":526,"x_min":0,"x_max":0,"o":"m 486 832 l 306 832 l 306 140 l 486 140 l 486 0 l -15 0 l -15 140 l 165 140 l 165 832 l -15 832 l -15 971 l 486 971 z m 310 1011 l 210 1160 l 21 1160 l 178 1011 z "},"Í":{"ha":519,"x_min":0,"x_max":0,"o":"m 479 971 l -22 971 l -22 832 l 158 832 l 158 140 l -22 140 l -22 0 l 479 0 l 479 140 l 299 140 l 299 832 l 479 832 z m 288 1015 l 444 1164 l 256 1164 l 156 1015 z "},"Î":{"ha":519,"x_min":0,"x_max":0,"o":"m 479 971 l -22 971 l -22 832 l 158 832 l 158 140 l -22 140 l -22 0 l 479 0 l 479 140 l 299 140 l 299 832 l 479 832 z m 168 1013 l 228 1067 l 294 1013 l 444 1013 l 292 1151 l 172 1151 l 15 1013 z "},"Ï":{"ha":519,"x_min":0,"x_max":0,"o":"m 479 832 l 299 832 l 299 140 l 479 140 l 479 0 l -22 0 l -22 140 l 158 140 l 158 832 l -22 832 l -22 971 l 479 971 z m 107 1150 b 31 1078 64 1150 31 1121 b 107 1010 31 1044 64 1010 b 186 1078 154 1010 186 1044 b 107 1150 186 1121 154 1150 z m 360 1150 b 282 1078 315 1150 282 1121 b 360 1010 282 1044 315 1010 b 438 1078 401 1010 438 1044 b 360 1150 438 1121 407 1150 z "},"Ñ":{"ha":817,"x_min":0,"x_max":0,"o":"m 301 1008 b 490 1007 342 1111 421 983 b 575 1119 526 1021 553 1060 l 483 1160 b 311 1158 460 1053 396 1168 b 218 1043 271 1151 246 1113 z m 163 0 l 163 679 l 632 0 l 743 0 l 743 972 l 604 972 l 604 288 l 131 972 l 22 974 l 22 0 z "},"Ò":{"ha":1053,"x_min":0,"x_max":0,"o":"m 846 486 b 743 738 846 586 806 674 b 492 843 678 803 588 843 b 243 738 396 843 307 803 b 139 486 179 674 139 585 b 243 235 139 388 179 299 b 492 129 307 169 396 129 b 743 235 588 129 678 169 b 846 486 806 299 846 386 z m -3 486 b 142 838 -3 624 54 747 b 492 985 231 928 356 985 b 843 838 629 985 753 928 b 988 486 931 747 988 624 b 843 135 988 349 931 225 b 492 -12 753 43 629 -12 b 142 135 356 -12 231 43 b -3 486 54 225 -3 349 z m 578 1021 l 478 1169 l 289 1169 l 446 1021 z "},"Ó":{"ha":1053,"x_min":0,"x_max":0,"o":"m 846 486 b 743 235 846 386 806 299 b 492 129 678 169 588 129 b 243 235 396 129 307 169 b 139 486 179 299 139 388 b 243 738 139 585 179 674 b 492 843 307 803 396 843 b 743 738 588 843 678 803 b 846 486 806 674 846 586 z m -3 486 b 142 135 -3 349 54 225 b 492 -12 231 43 356 -12 b 843 135 629 -12 753 43 b 988 486 931 225 988 349 b 843 838 988 624 931 747 b 492 985 753 928 629 985 b 142 838 356 985 231 928 b -3 486 54 747 -3 624 z m 543 1019 l 700 1168 l 511 1168 l 411 1019 z "},"Ô":{"ha":1053,"x_min":0,"x_max":0,"o":"m 846 486 b 743 235 846 386 806 299 b 492 129 678 169 588 129 b 243 235 396 129 307 169 b 139 486 179 299 139 388 b 243 738 139 585 179 674 b 492 843 307 803 396 843 b 743 738 588 843 678 803 b 846 486 806 674 846 586 z m -3 486 b 142 135 -3 349 54 225 b 492 -12 231 43 356 -12 b 843 135 629 -12 753 43 b 988 486 931 225 988 349 b 843 838 988 624 931 747 b 492 985 753 928 629 985 b 142 838 356 985 231 928 b -3 486 54 747 -3 624 z m 436 1017 l 496 1071 l 563 1017 l 713 1017 l 560 1156 l 440 1156 l 283 1017 z "},"Õ":{"ha":1053,"x_min":0,"x_max":0,"o":"m 396 1021 b 585 1019 435 1114 517 996 b 672 1124 624 1032 649 1071 l 581 1157 b 407 1156 554 1063 492 1165 b 311 1051 367 1150 339 1114 z m 846 486 b 743 235 846 386 806 299 b 492 129 678 169 588 129 b 243 235 396 129 307 169 b 139 486 179 299 139 388 b 243 738 139 585 179 674 b 492 843 307 803 396 843 b 743 738 588 843 678 803 b 846 486 806 674 846 586 z m -3 486 b 142 135 -3 349 54 225 b 492 -12 231 43 356 -12 b 843 135 629 -12 753 43 b 988 486 931 225 988 349 b 843 838 988 624 931 747 b 492 985 753 928 629 985 b 142 838 356 985 231 928 b -3 486 54 747 -3 624 z "},"Ö":{"ha":1053,"x_min":0,"x_max":0,"o":"m 846 486 b 743 738 846 586 806 674 b 492 843 678 803 588 843 b 243 738 396 843 307 803 b 139 486 179 674 139 585 b 243 235 139 388 179 299 b 492 129 307 169 396 129 b 743 235 588 129 678 169 b 846 486 806 299 846 386 z m -3 486 b 142 838 -3 624 54 747 b 492 985 231 928 356 985 b 843 838 629 985 753 928 b 988 486 931 747 988 624 b 843 135 988 349 931 225 b 492 -12 753 43 629 -12 b 142 135 356 -12 231 43 b -3 486 54 225 -3 349 z m 369 1149 b 293 1079 326 1149 293 1121 b 369 1013 293 1046 326 1013 b 450 1079 417 1013 450 1046 b 369 1149 450 1121 417 1149 z m 625 1149 b 547 1079 582 1149 547 1121 b 625 1013 547 1046 582 1013 b 706 1079 668 1013 706 1046 b 625 1149 706 1121 674 1149 z "},"Ù":{"ha":818,"x_min":0,"x_max":0,"o":"m 385 -10 b 25 292 214 -10 25 93 l 25 971 l 167 971 l 167 290 b 385 131 167 183 282 131 b 601 292 486 131 601 185 l 601 971 l 743 971 l 743 290 b 385 -10 743 93 551 -10 z m 494 1010 l 394 1158 l 206 1158 l 363 1010 z "},"Ú":{"ha":818,"x_min":0,"x_max":0,"o":"m 385 -10 b 743 290 551 -10 743 93 l 743 971 l 601 971 l 601 292 b 385 131 601 185 486 131 b 167 290 282 131 167 183 l 167 971 l 25 971 l 25 292 b 385 -10 25 93 214 -10 z m 422 1013 l 579 1161 l 390 1161 l 290 1013 z "},"Û":{"ha":818,"x_min":0,"x_max":0,"o":"m 385 -10 b 743 290 551 -10 743 93 l 743 971 l 601 971 l 601 292 b 385 131 601 185 486 131 b 167 290 282 131 167 183 l 167 971 l 25 971 l 25 292 b 385 -10 25 93 214 -10 z m 318 1013 l 378 1067 l 444 1013 l 594 1013 l 442 1151 l 322 1151 l 165 1013 z "},"Ü":{"ha":818,"x_min":0,"x_max":0,"o":"m 385 -10 b 25 292 214 -10 25 93 l 25 971 l 167 971 l 167 290 b 385 131 167 183 282 131 b 601 292 486 131 601 185 l 601 971 l 743 971 l 743 290 b 385 -10 743 93 551 -10 z m 258 1153 b 182 1079 217 1153 182 1124 b 258 1010 182 1044 217 1010 b 340 1079 307 1010 340 1044 b 258 1153 340 1124 307 1153 z m 517 1153 b 439 1079 472 1153 439 1124 b 517 1010 439 1044 472 1010 b 597 1079 560 1010 597 1044 b 517 1153 597 1124 565 1153 z "},"Ý":{"ha":788,"x_min":0,"x_max":0,"o":"m -69 971 l 290 396 l 290 0 l 432 0 l 432 396 l 793 971 l 626 971 l 361 544 l 96 971 z m 408 1014 l 565 1163 l 376 1163 l 276 1014 z "},"ç":{"ha":971,"x_min":0,"x_max":0,"o":"m 4 483 b 143 138 4 349 60 226 b 417 -3 214 63 310 11 l 371 -108 b 363 -169 635 -97 476 -317 l 282 -194 b 544 -289 304 -308 460 -340 b 499 -43 681 -208 642 -51 l 513 -6 b 939 364 722 8 886 154 l 801 364 b 479 132 751 217 626 132 b 240 236 386 132 301 172 b 140 483 179 300 140 386 b 240 733 140 583 179 669 b 479 838 301 797 386 838 b 793 618 622 838 742 764 l 932 618 b 479 976 876 838 701 976 b 143 832 347 976 228 919 b 4 483 60 743 4 621 z "},"è":{"ha":650,"x_min":0,"x_max":0,"o":"m 158 140 l 610 140 l 610 0 l 17 0 l 17 971 l 608 971 l 608 831 l 158 831 l 158 557 l 599 557 l 599 415 l 158 415 z m 422 1017 l 322 1165 l 133 1165 l 290 1017 z "},"é":{"ha":650,"x_min":0,"x_max":0,"o":"m 158 415 l 599 415 l 599 557 l 158 557 l 158 831 l 608 831 l 608 971 l 17 971 l 17 0 l 610 0 l 610 140 l 158 140 z m 369 1014 l 526 1163 l 338 1163 l 238 1014 z "},"ê":{"ha":650,"x_min":0,"x_max":0,"o":"m 158 415 l 599 415 l 599 557 l 158 557 l 158 831 l 608 831 l 608 971 l 17 971 l 17 0 l 610 0 l 610 140 l 158 140 z m 264 1018 l 324 1072 l 390 1018 l 540 1018 l 388 1157 l 268 1157 l 111 1018 z "},"ë":{"ha":650,"x_min":0,"x_max":0,"o":"m 158 140 l 610 140 l 610 0 l 17 0 l 17 971 l 608 971 l 608 831 l 158 831 l 158 557 l 599 557 l 599 415 l 158 415 z m 204 1153 b 128 1079 163 1153 128 1122 b 204 1011 128 1046 163 1011 b 285 1079 253 1011 285 1046 b 204 1153 285 1122 253 1153 z m 458 1153 b 382 1079 415 1153 382 1122 b 458 1011 382 1046 415 1011 b 538 1079 501 1011 538 1046 b 458 1153 538 1122 507 1153 z "},"ì":{"ha":526,"x_min":0,"x_max":0,"o":"m 486 832 l 306 832 l 306 140 l 486 140 l 486 0 l -15 0 l -15 140 l 165 140 l 165 832 l -15 832 l -15 971 l 486 971 z m 310 1011 l 210 1160 l 21 1160 l 178 1011 z "},"í":{"ha":519,"x_min":0,"x_max":0,"o":"m 479 971 l -22 971 l -22 832 l 158 832 l 158 140 l -22 140 l -22 0 l 479 0 l 479 140 l 299 140 l 299 832 l 479 832 z m 288 1015 l 444 1164 l 256 1164 l 156 1015 z "},"î":{"ha":519,"x_min":0,"x_max":0,"o":"m 479 971 l -22 971 l -22 832 l 158 832 l 158 140 l -22 140 l -22 0 l 479 0 l 479 140 l 299 140 l 299 832 l 479 832 z m 168 1013 l 228 1067 l 294 1013 l 444 1013 l 292 1151 l 172 1151 l 15 1013 z "},"ï":{"ha":519,"x_min":0,"x_max":0,"o":"m 479 832 l 299 832 l 299 140 l 479 140 l 479 0 l -22 0 l -22 140 l 158 140 l 158 832 l -22 832 l -22 971 l 479 971 z m 107 1150 b 31 1078 64 1150 31 1121 b 107 1010 31 1044 64 1010 b 186 1078 154 1010 186 1044 b 107 1150 186 1121 154 1150 z m 360 1150 b 282 1078 315 1150 282 1121 b 360 1010 282 1044 315 1010 b 438 1078 401 1010 438 1044 b 360 1150 438 1121 407 1150 z "},"ñ":{"ha":817,"x_min":0,"x_max":0,"o":"m 301 1008 b 490 1007 342 1111 421 983 b 575 1119 526 1021 553 1060 l 483 1160 b 311 1158 460 1053 396 1168 b 218 1043 271 1151 246 1113 z m 163 0 l 163 679 l 632 0 l 743 0 l 743 972 l 604 972 l 604 288 l 131 972 l 22 974 l 22 0 z "},"ò":{"ha":1053,"x_min":0,"x_max":0,"o":"m 846 486 b 743 738 846 586 806 674 b 492 843 678 803 588 843 b 243 738 396 843 307 803 b 139 486 179 674 139 585 b 243 235 139 388 179 299 b 492 129 307 169 396 129 b 743 235 588 129 678 169 b 846 486 806 299 846 386 z m -3 486 b 142 838 -3 624 54 747 b 492 985 231 928 356 985 b 843 838 629 985 753 928 b 988 486 931 747 988 624 b 843 135 988 349 931 225 b 492 -12 753 43 629 -12 b 142 135 356 -12 231 43 b -3 486 54 225 -3 349 z m 578 1021 l 478 1169 l 289 1169 l 446 1021 z "},"ó":{"ha":1053,"x_min":0,"x_max":0,"o":"m 846 486 b 743 235 846 386 806 299 b 492 129 678 169 588 129 b 243 235 396 129 307 169 b 139 486 179 299 139 388 b 243 738 139 585 179 674 b 492 843 307 803 396 843 b 743 738 588 843 678 803 b 846 486 806 674 846 586 z m -3 486 b 142 135 -3 349 54 225 b 492 -12 231 43 356 -12 b 843 135 629 -12 753 43 b 988 486 931 225 988 349 b 843 838 988 624 931 747 b 492 985 753 928 629 985 b 142 838 356 985 231 928 b -3 486 54 747 -3 624 z m 543 1019 l 700 1168 l 511 1168 l 411 1019 z "},"ô":{"ha":1053,"x_min":0,"x_max":0,"o":"m 846 486 b 743 235 846 386 806 299 b 492 129 678 169 588 129 b 243 235 396 129 307 169 b 139 486 179 299 139 388 b 243 738 139 585 179 674 b 492 843 307 803 396 843 b 743 738 588 843 678 803 b 846 486 806 674 846 586 z m -3 486 b 142 135 -3 349 54 225 b 492 -12 231 43 356 -12 b 843 135 629 -12 753 43 b 988 486 931 225 988 349 b 843 838 988 624 931 747 b 492 985 753 928 629 985 b 142 838 356 985 231 928 b -3 486 54 747 -3 624 z m 436 1017 l 496 1071 l 563 1017 l 713 1017 l 560 1156 l 440 1156 l 283 1017 z "},"õ":{"ha":1053,"x_min":0,"x_max":0,"o":"m 396 1021 b 585 1019 435 1114 517 996 b 672 1124 624 1032 649 1071 l 581 1157 b 407 1156 554 1063 492 1165 b 311 1051 367 1150 339 1114 z m 846 486 b 743 235 846 386 806 299 b 492 129 678 169 588 129 b 243 235 396 129 307 169 b 139 486 179 299 139 388 b 243 738 139 585 179 674 b 492 843 307 803 396 843 b 743 738 588 843 678 803 b 846 486 806 674 846 586 z m -3 486 b 142 135 -3 349 54 225 b 492 -12 231 43 356 -12 b 843 135 629 -12 753 43 b 988 486 931 225 988 349 b 843 838 988 624 931 747 b 492 985 753 928 629 985 b 142 838 356 985 231 928 b -3 486 54 747 -3 624 z "},"ö":{"ha":1053,"x_min":0,"x_max":0,"o":"m 846 486 b 743 738 846 586 806 674 b 492 843 678 803 588 843 b 243 738 396 843 307 803 b 139 486 179 674 139 585 b 243 235 139 388 179 299 b 492 129 307 169 396 129 b 743 235 588 129 678 169 b 846 486 806 299 846 386 z m -3 486 b 142 838 -3 624 54 747 b 492 985 231 928 356 985 b 843 838 629 985 753 928 b 988 486 931 747 988 624 b 843 135 988 349 931 225 b 492 -12 753 43 629 -12 b 142 135 356 -12 231 43 b -3 486 54 225 -3 349 z m 369 1149 b 293 1079 326 1149 293 1121 b 369 1013 293 1046 326 1013 b 450 1079 417 1013 450 1046 b 369 1149 450 1121 417 1149 z m 625 1149 b 547 1079 582 1149 547 1121 b 625 1013 547 1046 582 1013 b 706 1079 668 1013 706 1046 b 625 1149 706 1121 674 1149 z "},"ø":{"ha":1056,"x_min":0,"x_max":0,"o":"m 6 486 b 150 135 6 349 63 225 l 150 136 l 182 110 l 76 -60 l 231 -60 l 289 33 b 500 -12 347 7 433 -12 b 851 135 638 -12 763 43 b 996 486 939 225 996 349 b 819 864 996 622 944 756 l 911 1011 l 756 1010 l 710 939 b 500 985 646 971 576 985 b 150 838 364 985 239 928 b 6 486 63 747 6 624 z m 854 486 b 751 235 854 386 814 299 b 500 129 686 169 597 129 b 364 157 454 129 413 133 b 743 747 501 371 611 540 b 854 486 810 681 854 589 z m 500 843 b 633 819 544 843 593 835 l 258 228 b 251 233 258 229 251 232 l 251 235 b 147 486 189 299 147 388 b 251 738 147 585 189 674 b 500 843 315 803 404 843 z "},"ù":{"ha":818,"x_min":0,"x_max":0,"o":"m 385 -10 b 25 292 214 -10 25 93 l 25 971 l 167 971 l 167 290 b 385 131 167 183 282 131 b 601 292 486 131 601 185 l 601 971 l 743 971 l 743 290 b 385 -10 743 93 551 -10 z m 494 1010 l 394 1158 l 206 1158 l 363 1010 z "},"ú":{"ha":818,"x_min":0,"x_max":0,"o":"m 385 -10 b 743 290 551 -10 743 93 l 743 971 l 601 971 l 601 292 b 385 131 601 185 486 131 b 167 290 282 131 167 183 l 167 971 l 25 971 l 25 292 b 385 -10 25 93 214 -10 z m 422 1013 l 579 1161 l 390 1161 l 290 1013 z "},"û":{"ha":818,"x_min":0,"x_max":0,"o":"m 385 -10 b 743 290 551 -10 743 93 l 743 971 l 601 971 l 601 292 b 385 131 601 185 486 131 b 167 290 282 131 167 183 l 167 971 l 25 971 l 25 292 b 385 -10 25 93 214 -10 z m 318 1013 l 378 1067 l 444 1013 l 594 1013 l 442 1151 l 322 1151 l 165 1013 z "},"ü":{"ha":818,"x_min":0,"x_max":0,"o":"m 385 -10 b 25 292 214 -10 25 93 l 25 971 l 167 971 l 167 290 b 385 131 167 183 282 131 b 601 292 486 131 601 185 l 601 971 l 743 971 l 743 290 b 385 -10 743 93 551 -10 z m 258 1153 b 182 1079 217 1153 182 1124 b 258 1010 182 1044 217 1010 b 340 1079 307 1010 340 1044 b 258 1153 340 1124 307 1153 z m 517 1153 b 439 1079 472 1153 439 1124 b 517 1010 439 1044 472 1010 b 597 1079 560 1010 597 1044 b 517 1153 597 1124 565 1153 z "},"ý":{"ha":788,"x_min":0,"x_max":0,"o":"m -69 971 l 290 396 l 290 0 l 432 0 l 432 396 l 793 971 l 626 971 l 361 544 l 96 971 z m 408 1014 l 565 1163 l 376 1163 l 276 1014 z "},"ÿ":{"ha":788,"x_min":0,"x_max":0,"o":"m 96 971 l 361 544 l 626 971 l 793 971 l 432 396 l 432 0 l 290 0 l 290 396 l -69 971 z m 221 1163 b 143 1081 178 1163 143 1129 b 221 1003 143 1042 178 1003 b 303 1081 269 1003 303 1042 b 221 1163 303 1129 269 1163 z m 481 1163 b 401 1081 436 1163 401 1129 b 481 1003 401 1042 436 1003 b 561 1081 524 1003 561 1042 b 481 1163 561 1129 529 1163 z "},"℮":{"ha":913,"x_min":0,"x_max":0,"o":"m 863 410 b 456 838 856 647 710 838 b 54 411 206 838 54 647 b 454 -17 54 175 210 -17 b 808 192 628 -17 724 65 b 758 222 792 201 775 213 b 454 36 689 108 599 36 b 229 128 365 36 290 68 l 229 410 z m 682 463 l 229 463 l 229 694 b 456 786 290 756 367 786 b 682 693 542 786 622 750 z "},"B":{"ha":792,"x_min":0,"x_max":0,"o":"m 161 838 l 426 838 b 424 585 579 838 576 585 l 161 585 z m 22 971 l 22 0 l 461 0 b 743 293 647 0 743 147 b 592 535 743 385 703 488 b 663 811 689 604 701 715 b 426 971 626 901 549 971 z m 161 446 l 461 446 b 603 292 556 446 603 368 b 461 136 603 215 556 136 l 161 136 z "},"z":{"ha":740,"x_min":0,"x_max":0,"o":"m 1 843 l 521 843 l -40 78 l 17 0 l 699 0 l 699 125 l 157 125 l 707 882 l 660 971 l 1 971 z "},"Z":{"ha":740,"x_min":0,"x_max":0,"o":"m 1 843 l 521 843 l -40 78 l 17 0 l 699 0 l 699 125 l 157 125 l 707 882 l 660 971 l 1 971 z "}}}
